#!OML:ASF I:\Actors\actors\Patient Classification 2\Patient 1\Session 1\actor1.ASF
:FULLY-SPECIFIED
:DEGREES
307
root -0.541547 18.3978 6.82098 -5.44731 0.464583 -3.24892
lowerback 2.3867 2.1095 -0.569247
upperback -6.02005 2.70314 -1.39675
thorax -7.58363 1.31765 -1.38531
lowerneck -40.3514 -8.82961 -5.66142
upperneck 10.5034 -10.3727 8.33823
head 10.2022 -3.80733 2.02134
rclavicle -2.3059e-014 0
rhumerus 5.88143 17.419 -69.4351
rradius 86.0872
rwrist 11.3377
rhand -9.78381 -32.789
rfingers 7.12502
rthumb 16.1918 -62.1327
lclavicle -2.3059e-014 0
lhumerus -13.4535 -41.8961 89.9852
lradius 85.2357
lwrist 8.0237
lhand 27.0771 7.38532
lfingers 7.12502
lthumb 51.061 28.0326
rfemur 18.4129 1.86695 17.4647
rtibia 2.8625e-014
rfoot -21.6949 -11.769
rtoes -15.6975
lfemur 2.90656 -6.40819 -13.1955
ltibia 26.1232
lfoot -26.7345 9.57096
ltoes -55.8269
308
root -0.529661 18.4088 6.83633 -5.2353 -0.054849 -3.30426
lowerback 2.47401 2.5377 -0.375123
upperback -5.89608 3.30233 -1.20478
thorax -7.49138 1.60847 -1.34525
lowerneck -40.6262 -9.20572 -6.06324
upperneck 10.5731 -10.6465 8.35387
head 10.3009 -3.93472 2.02784
rclavicle 9.14409e-015 2.3059e-014
rhumerus 6.85679 16.5141 -69.8569
rradius 82.2458
rwrist 11.9834
rhand -10.1416 -33.5301
rfingers 7.12502
rthumb 15.8473 -62.9015
lclavicle 9.14409e-015 2.3059e-014
lhumerus -10.9321 -42.8104 88.0099
lradius 87.3581
lwrist 10.3716
lhand 25.8593 7.78996
lfingers 7.12502
lthumb 49.9489 29.0395
rfemur 18.1222 2.39043 17.5467
rtibia -6.20208e-014
rfoot -21.449 -11.7916
rtoes -13.1809
lfemur 2.87651 -5.97429 -13.1149
ltibia 25.989
lfoot -26.6543 9.9845
ltoes -56.0278
309
root -0.517782 18.419 6.85037 -5.12496 -0.337028 -3.43738
lowerback 2.8031 2.84531 -0.138636
upperback -5.78079 3.74105 -1.01841
thorax -7.54914 1.81604 -1.33529
lowerneck -40.9208 -9.47187 -6.34721
upperneck 10.5803 -10.8316 8.39104
head 10.3694 -4.01462 2.04291
rclavicle -7.99114e-014 -7.95139e-016
rhumerus 7.30375 16.151 -70.2621
rradius 78.7797
rwrist 11.7206
rhand -10.0121 -35.0751
rfingers 7.12502
rthumb 15.972 -64.4366
lclavicle -7.99114e-014 -7.95139e-016
lhumerus -7.76581 -43.0852 85.6855
lradius 89.4623
lwrist 11.7797
lhand 25.1714 8.17114
lfingers 7.12502
lthumb 49.3185 29.7445
rfemur 17.9794 2.67396 17.6939
rtibia 5.24792e-014
rfoot -21.1397 -11.9232
rtoes -12.1668
lfemur 2.88508 -5.76406 -12.9847
ltibia 25.9081
lfoot -26.5517 10.253
ltoes -56.0875
310
root -0.507194 18.4293 6.86388 -5.07187 -0.463911 -3.62123
lowerback 3.24375 3.08315 0.0666536
upperback -5.68737 4.08573 -0.835083
thorax -7.69868 1.97756 -1.31337
lowerneck -41.109 -9.64632 -6.53168
upperneck 10.5329 -10.9448 8.40574
head 10.3922 -4.06556 2.05099
rclavicle -2.84262e-014 -1.35174e-014
rhumerus 7.33399 16.2865 -70.5451
rradius 75.5947
rwrist 11.1504
rhand -9.4745 -36.2634
rfingers 7.12502
rthumb 16.4896 -65.5826
lclavicle -2.84262e-014 -1.35174e-014
lhumerus -4.18835 -42.9699 83.1345
lradius 91.3208
lwrist 12.2616
lhand 23.7024 7.56956
lfingers 7.12502
lthumb 47.9672 29.7977
rfemur 17.9286 2.79967 17.8864
rtibia 1.74931e-014
rfoot -20.8607 -12.0438
rtoes -12.2842
lfemur 2.91356 -5.70349 -12.8191
ltibia 25.868
lfoot -26.4488 10.5113
ltoes -56.1805
311
root -0.494141 18.4408 6.87839 -5.00068 -0.53046 -3.78463
lowerback 3.66267 3.24976 0.24064
upperback -5.57018 4.33445 -0.65817
thorax -7.81346 2.09358 -1.27194
lowerneck -41.3673 -9.76005 -6.67491
upperneck 10.4757 -10.9961 8.43625
head 10.4152 -4.08286 2.07123
rclavicle -1.5704e-014 6.36111e-015
rhumerus 6.6636 16.8477 -70.9104
rradius 73.3553
rwrist 10.9238
rhand -8.80171 -36.5998
rfingers 7.12502
rthumb 17.1373 -65.864
lclavicle -1.5704e-014 6.36111e-015
lhumerus 0.0258427 -42.6209 80.0224
lradius 92.8686
lwrist 12.3102
lhand 21.5138 6.48392
lfingers 7.12502
lthumb 45.9426 29.6023
rfemur 17.8589 2.87423 18.0216
rtibia -3.49861e-014
rfoot -20.7076 -12.0639
rtoes -11.646
lfemur 2.89156 -5.67323 -12.6944
ltibia 25.8573
lfoot -26.3652 10.7433
ltoes -56.3519
312
root -0.48172 18.4511 6.89593 -4.92746 -0.505134 -3.92264
lowerback 4.0063 3.31595 0.305429
upperback -5.42328 4.44275 -0.458949
thorax -7.86503 2.14853 -1.12772
lowerneck -41.574 -9.73102 -6.68312
upperneck 10.3525 -10.9093 8.38088
head 10.3827 -4.04805 2.06946
rclavicle -3.81667e-014 -1.43125e-014
rhumerus 5.08371 17.7308 -71.4989
rradius 72.3425
rwrist 11.3847
rhand -8.02099 -36.61
rfingers 7.12502
rthumb 17.8886 -65.8073
lclavicle -3.81667e-014 -1.43125e-014
lhumerus 4.73345 -41.8293 76.5589
lradius 94.1147
lwrist 12.1069
lhand 19.1469 5.47872
lfingers 7.12502
lthumb 43.7395 29.4581
rfemur 17.806 2.86354 18.1077
rtibia -3.18055e-015
rfoot -20.6054 -12.0631
rtoes -10.9621
lfemur 2.84717 -5.77619 -12.6159
ltibia 25.8482
lfoot -26.3245 10.9548
ltoes -56.5013
313
root -0.474128 18.4588 6.9158 -4.86878 -0.40707 -4.0849
lowerback 3.10438 3.34348 0.0430912
upperback -4.50867 4.4796 -0.0154975
thorax -6.41978 2.21092 -0.426126
lowerneck -42.4351 -9.73258 -6.75072
upperneck 9.98706 -10.7267 8.23698
head 10.3242 -3.9699 2.06088
rclavicle 5.36719e-015 0
rhumerus 4.2673 18.9513 -71.1511
rradius 72.0924
rwrist 11.7791
rhand -6.67213 -37.009
rfingers 7.12502
rthumb 19.1861 -66.0826
lclavicle 5.36719e-015 0
lhumerus 10.8996 -40.1741 72.6978
lradius 94.771
lwrist 11.6762
lhand 16.6997 4.36677
lfingers 7.12502
lthumb 41.449 29.1387
rfemur 17.7988 2.77489 18.2301
rtibia 3.18055e-014
rfoot -20.3528 -12.1559
rtoes -11.3843
lfemur 2.83808 -5.97792 -12.4984
ltibia 25.8075
lfoot -26.325 11.1056
ltoes -56.5272
314
root -0.471036 18.4643 6.93733 -4.78953 -0.287212 -4.19884
lowerback 3.42494 3.27952 -0.0117489
upperback -4.40089 4.39807 0.10853
thorax -6.50452 2.17538 -0.276931
lowerneck -42.6437 -9.6465 -6.74234
upperneck 10.1478 -10.6227 8.25704
head 10.4055 -3.91138 2.08588
rclavicle 9.28324e-014 3.26007e-014
rhumerus 1.97641 20.9105 -71.5264
rradius 72.5007
rwrist 11.283
rhand -5.20868 -37.8748
rfingers 7.12502
rthumb 20.5929 -66.8025
lclavicle 9.28324e-014 3.26007e-014
lhumerus 15.3969 -38.6327 69.5445
lradius 95.0946
lwrist 11.1004
lhand 13.9503 3.00714
lfingers 7.12502
lthumb 38.8627 28.5664
rfemur 17.7978 2.66794 18.3031
rtibia -7.31528e-014
rfoot -20.0896 -12.1556
rtoes -11.7156
lfemur 2.84166 -6.13524 -12.4007
ltibia 25.733
lfoot -26.3498 11.162
ltoes -56.5803
315
root -0.471149 18.4702 6.96001 -4.63554 -0.137663 -4.19444
lowerback 4.76131 3.11781 0.0277023
upperback -5.00882 4.18451 -0.0347869
thorax -7.91607 2.04998 -0.53463
lowerneck -42.1346 -9.41097 -6.60659
upperneck 10.5916 -10.498 8.32524
head 10.5068 -3.84875 2.11686
rclavicle 7.03698e-014 9.54166e-015
rhumerus -1.58725 23.2094 -72.952
rradius 73.3149
rwrist 10.1328
rhand -3.84162 -39.0268
rfingers 7.12502
rthumb 21.906 -67.8067
lclavicle 7.03698e-014 9.54166e-015
lhumerus 18.3861 -37.277 67.0818
lradius 95.1082
lwrist 10.2882
lhand 10.845 1.51289
lfingers 7.12502
lthumb 35.9274 27.8472
rfemur 17.7349 2.54157 18.2421
rtibia -5.56597e-014
rfoot -19.9497 -12.0202
rtoes -11.4058
lfemur 2.77245 -6.23875 -12.3975
ltibia 25.6405
lfoot -26.3232 11.1097
ltoes -56.726
316
root -0.472317 18.4781 6.98231 -4.43476 0.0514293 -4.15404
lowerback 4.73125 3.00707 -0.748232
upperback -4.79776 4.00199 0.420196
thorax -7.7617 2.01993 0.401339
lowerneck -42.2801 -9.27758 -6.80099
upperneck 10.6756 -10.1445 8.02223
head 10.5145 -3.73889 2.10299
rclavicle 1.26228e-014 -3.18055e-015
rhumerus -3.24611 26.3223 -72.3352
rradius 74.3021
rwrist 7.98502
rhand -1.57811 -40.9912
rfingers 7.12502
rthumb 24.078 -69.5006
lclavicle 1.26228e-014 -3.18055e-015
lhumerus 22.074 -35.0861 65.5196
lradius 94.5087
lwrist 9.05719
lhand 7.43264 -0.416493
lfingers 7.12502
lthumb 32.6874 26.6492
rfemur 17.6186 2.37552 18.1467
rtibia -6.36111e-015
rfoot -19.8007 -11.9474
rtoes -11.388
lfemur 2.63025 -6.30489 -12.4003
ltibia 25.5497
lfoot -26.2133 10.9782
ltoes -56.8725
